<svg width="59" height="37" viewBox="0 0 59 37" fill="none" xmlns="http://www.w3.org/2000/svg">
<path d="M6.2583 18.0653C6.92713 18.0653 7.59595 18.1619 8.217 18.4034C8.12146 17.8238 8.07368 17.2441 8.07368 16.6162C8.07368 10.9165 12.5166 6.32768 18.0105 6.32768C19.8737 6.32768 21.5935 6.85901 23.1223 7.77676C25.5109 3.13969 30.1927 0 35.6389 0C43.4737 0 49.8275 6.56919 49.8275 14.6841C49.8275 15.312 49.7798 15.8916 49.6842 16.5196C50.1142 16.423 50.5441 16.3747 51.0219 16.3747C55.417 16.3747 59 20.0457 59 24.5862C59 29.1266 55.417 32.7977 51.0219 32.7977C49.3498 32.7977 47.8211 32.2663 46.5312 31.3486C45.4324 34.3916 42.6138 36.517 39.2696 36.517C36.9765 36.517 34.97 35.5026 33.5368 33.9086C30.9093 35.8407 27.4219 37 23.5045 37C17.2939 37 11.9911 33.9569 9.88907 29.7063C8.83806 30.4791 7.59595 30.9138 6.21053 30.9138C2.81862 30.9621 0 28.064 0 24.5379C0 20.9634 2.81862 18.0653 6.2583 18.0653Z" fill="white"/>
</svg>
