<svg width="20" height="18" viewBox="0 0 20 18" fill="none" xmlns="http://www.w3.org/2000/svg">
<path d="M19.4607 8.16373C19.685 8.00619 19.8513 7.78641 19.9364 7.53522C20.0216 7.28403 20.0212 7.01402 19.9353 6.76304C19.8495 6.51207 19.6825 6.29272 19.4578 6.13575C19.2332 5.97878 18.962 5.89206 18.6824 5.88775L13.2521 5.69429C13.2254 5.69255 13.1998 5.68357 13.1784 5.66843C13.157 5.65329 13.1407 5.63263 13.1315 5.60894L11.255 0.829395C11.1607 0.58623 10.9895 0.376258 10.7645 0.227909C10.5395 0.0795604 10.2715 0 9.99698 0C9.72243 0 9.45451 0.0795604 9.2295 0.227909C9.00449 0.376258 8.83325 0.58623 8.73897 0.829395L6.86854 5.62601C6.8593 5.6497 6.84299 5.67036 6.82157 5.6855C6.80016 5.70064 6.77457 5.70962 6.74787 5.71136L1.31759 5.90482C1.038 5.90913 0.766843 5.99584 0.542147 6.15281C0.317451 6.30978 0.150483 6.52914 0.0646547 6.78011C-0.0211739 7.03109 -0.0215589 7.3011 0.0635534 7.55229C0.148666 7.80348 0.315008 8.02326 0.539255 8.1808L4.799 11.3387C4.82032 11.3545 4.83626 11.3759 4.84484 11.4002C4.85341 11.4244 4.85426 11.4506 4.84727 11.4753L3.3811 16.3743C3.30512 16.6238 3.31248 16.8893 3.40218 17.1347C3.49188 17.38 3.65955 17.5934 3.8824 17.7457C4.10525 17.8981 4.37245 17.982 4.64765 17.986C4.92285 17.9901 5.19269 17.9141 5.42047 17.7683L9.92156 14.9234C9.94373 14.9089 9.97004 14.9012 9.99698 14.9012C10.0239 14.9012 10.0502 14.9089 10.0724 14.9234L14.5735 17.7683C14.7982 17.919 15.0671 18 15.3428 18C15.6185 18 15.8874 17.919 16.1121 17.7683C16.335 17.6174 16.5028 17.4051 16.5925 17.1606C16.6822 16.916 16.6893 16.6513 16.6129 16.4028L15.1346 11.4867C15.1268 11.462 15.1272 11.4356 15.1359 11.4112C15.1445 11.3867 15.1609 11.3654 15.1829 11.3501L19.4607 8.16373Z" fill="#575756"/>
</svg>
