<svg width="31" height="38" viewBox="0 0 31 38" fill="none" xmlns="http://www.w3.org/2000/svg">
<path d="M23.347 16.0174C23.347 13.7487 22.4474 11.573 20.8461 9.96876C19.2447 8.36455 17.0728 7.46332 14.8082 7.46332C12.5436 7.46332 10.3717 8.36455 8.77036 9.96876C7.16903 11.573 6.2694 13.7487 6.2694 16.0174C6.2694 25.9972 2 28.8486 2 28.8486H27.6164C27.6164 28.8486 23.347 25.9972 23.347 16.0174Z" stroke="#DC6A8D" stroke-width="3" stroke-linecap="round" stroke-linejoin="round"/>
<path d="M17.2702 34.5513C17.02 34.9834 16.6609 35.342 16.2288 35.5914C15.7967 35.8407 15.3068 35.9719 14.8082 35.9719C14.3096 35.9719 13.8197 35.8407 13.3876 35.5914C12.9555 35.342 12.5964 34.9834 12.3462 34.5513" stroke="#DC6A8D" stroke-width="3" stroke-linecap="round" stroke-linejoin="round"/>
<ellipse cx="27.6538" cy="2.91664" rx="2.91142" ry="2.91664" fill="#DC6A8D"/>
</svg>
