<svg width="34" height="35" viewBox="0 0 34 35" fill="none" xmlns="http://www.w3.org/2000/svg">
<path d="M14.28 0C12.6586 0.00615359 11.1053 0.700058 9.95884 1.93037C8.81236 3.16068 8.16573 4.82757 8.16 6.56748C8.16 7.73503 8.46872 8.8194 8.96784 9.76073C6.51848 11.299 4.60088 13.4823 3.57 16.0538H3.4C3.31014 16.056 3.2208 16.0387 3.13737 16.0028C3.05395 15.9669 2.97817 15.9132 2.91461 15.845C2.85106 15.7768 2.80104 15.6955 2.7676 15.6059C2.73415 15.5164 2.71795 15.4205 2.72 15.3241C2.72 15.0673 2.8424 14.8629 3.01784 14.7316L1.44432 12.36C0.998723 12.6925 0.634661 13.1357 0.383171 13.6518C0.13168 14.168 0.000221047 14.7417 0 15.3241C0 17.1192 1.24848 18.5903 2.84784 18.8822C2.77848 19.393 2.72 19.9024 2.72 20.4322C2.72 24.0691 4.52064 27.2215 7.14 29.5537C6.81088 31.0131 6.97544 32.5689 8.03216 33.7043C8.81232 34.5343 9.86642 35 10.965 35C12.0636 35 13.1177 34.5343 13.8978 33.7043L14.4078 33.157C15.47 33.3672 16.5376 33.5671 17.68 33.5671C18.8224 33.5671 19.89 33.3672 20.9522 33.157L21.4622 33.7043C22.2423 34.5343 23.2964 35 24.395 35C25.4936 35 26.5477 34.5343 27.3278 33.7043C28.3628 32.5922 28.5178 31.0817 28.22 29.6441C29.3106 28.6936 30.2443 27.553 30.9822 26.2699H34V14.5944H30.8978C30.404 13.7342 29.819 12.9384 29.1543 12.2228L29.92 7.7073V5.83776H28.56C28.56 5.83776 25.2933 5.89614 22.5243 8.11886C21.7973 7.89381 21.0596 7.71063 20.3143 7.57012C20.3687 7.24612 20.4 6.90899 20.4 6.56748C20.4 2.95828 17.6433 0 14.28 0ZM14.28 2.91888C16.1704 2.91888 17.68 4.53886 17.68 6.56748C17.68 6.8185 17.6378 7.05785 17.5943 7.2972C15.4006 7.30887 13.3294 7.76422 11.4335 8.52897C11.0724 7.94822 10.8798 7.26565 10.88 6.56748C10.88 4.53886 12.3896 2.91888 14.28 2.91888ZM26.86 9.03101C26.8818 9.02518 26.8818 9.03539 26.9022 9.03101L26.3922 12.3585L26.2657 13.135L26.86 13.6822C27.7681 14.5262 28.5181 15.548 29.07 16.6931L29.4522 17.5133H31.28V23.351H29.4522L29.07 24.1727C28.4063 25.5796 27.3591 26.8172 26.01 27.8651L25.0322 28.6415L25.6278 29.828C25.9515 30.4147 25.893 31.1386 25.4143 31.6523C25.2852 31.7968 25.1302 31.9117 24.9587 31.9902C24.7872 32.0687 24.6026 32.1092 24.4161 32.1092C24.2296 32.1092 24.045 32.0687 23.8735 31.9902C23.7019 31.9117 23.5469 31.7968 23.4178 31.6523L22.44 30.6015L21.8878 30.0557L21.1643 30.2381C20.06 30.511 18.8863 30.6482 17.68 30.6482C16.5074 30.6528 15.3381 30.5152 14.1943 30.2381L13.4735 30.0557L12.92 30.603L11.9422 31.6509C11.8131 31.7955 11.658 31.9107 11.4863 31.9893C11.3146 32.068 11.1299 32.1085 10.9432 32.1085C10.7566 32.1085 10.5718 32.068 10.4002 31.9893C10.2285 31.9107 10.0734 31.7955 9.94432 31.6509C9.72049 31.4183 9.57743 31.1106 9.53884 30.7788C9.50025 30.447 9.56846 30.1111 9.73216 29.8266L10.3278 28.6415L9.35 27.8665C6.88976 25.9488 5.44 23.3335 5.44 20.4322C5.44 14.9709 10.7576 10.2161 17.68 10.2161C19.3528 10.2161 20.9467 10.4846 22.3978 10.991L23.12 11.2654L23.7157 10.7181C24.6867 9.78846 25.8876 9.28788 26.86 9.03101ZM25.84 17.5133C25.092 17.5133 24.48 18.17 24.48 18.9727C24.48 19.7754 25.092 20.4322 25.84 20.4322C26.588 20.4322 27.2 19.7754 27.2 18.9727C27.2 18.17 26.588 17.5133 25.84 17.5133Z" fill="#DC6A8D"/>
</svg>
