<svg width="15" height="12" viewBox="0 0 15 12" fill="none" xmlns="http://www.w3.org/2000/svg">
<path d="M13.5384 5.25857C13.8534 5.70143 13.8534 6.29929 13.5384 6.74143C12.5463 8.13357 10.1662 11 7.38741 11C4.6086 11 2.22847 8.13357 1.23642 6.74143C1.08318 6.52938 1 6.26851 1 6C1 5.73149 1.08318 5.47062 1.23642 5.25857C2.22847 3.86643 4.6086 1 7.38741 1C10.1662 1 12.5463 3.86643 13.5384 5.25857V5.25857Z" stroke="#575650" stroke-linecap="round" stroke-linejoin="round"/>
<path d="M7.38696 8.14289C8.48789 8.14289 9.38037 7.1835 9.38037 6.00003C9.38037 4.81657 8.48789 3.85718 7.38696 3.85718C6.28603 3.85718 5.39355 4.81657 5.39355 6.00003C5.39355 7.1835 6.28603 8.14289 7.38696 8.14289Z" stroke="#575650" stroke-linecap="round" stroke-linejoin="round"/>
</svg>
