<svg width="72" height="61" viewBox="0 0 72 61" fill="none" xmlns="http://www.w3.org/2000/svg">
<path d="M1.25 1.34851V0.598511C0.835786 0.598511 0.5 0.934297 0.5 1.34851L1.25 1.34851ZM71.19 1.34851H71.94C71.94 0.934297 71.6042 0.598511 71.19 0.598511V1.34851ZM71.19 59.7936V60.5436C71.6042 60.5436 71.94 60.2079 71.94 59.7936H71.19ZM1.25 59.7936H0.5C0.5 60.2079 0.835786 60.5436 1.25 60.5436L1.25 59.7936ZM1.41478 53.367L0.853582 52.8694C0.736827 53.0011 0.670103 53.1697 0.665089 53.3456L1.41478 53.367ZM18.5881 33.9965L19.1493 33.4989C19.007 33.3384 18.8027 33.2465 18.5881 33.2465C18.3735 33.2465 18.1692 33.3384 18.0269 33.4989L18.5881 33.9965ZM28.9043 45.6325L28.3431 46.1301C28.489 46.2946 28.6996 46.3868 28.9195 46.3824C29.1393 46.3779 29.3461 46.2773 29.4851 46.107L28.9043 45.6325ZM52.8532 16.315L53.4144 15.8174C53.2685 15.6529 53.0578 15.5607 52.838 15.5651C52.6182 15.5696 52.4114 15.6702 52.2723 15.8405L52.8532 16.315ZM71.1715 36.977H71.9215C71.9215 36.7937 71.8544 36.6167 71.7327 36.4795L71.1715 36.977ZM1.26114 58.7572L2.01083 58.7786L1.26114 58.7572ZM1.25 2.09851H71.19V0.598511H1.25V2.09851ZM70.44 1.34851V59.7936H71.94V1.34851H70.44ZM71.19 59.0436H1.25V60.5436H71.19V59.0436ZM2 59.7936V1.34851H0.5V59.7936H2ZM21.7384 21.9687C24.7895 21.9687 27.2164 19.4108 27.2164 16.314H25.7164C25.7164 18.6347 23.9097 20.4687 21.7384 20.4687V21.9687ZM27.2164 16.314C27.2164 13.2172 24.7895 10.6593 21.7384 10.6593V12.1593C23.9097 12.1593 25.7164 13.9933 25.7164 16.314H27.2164ZM21.7384 10.6593C18.6872 10.6593 16.2603 13.2172 16.2603 16.314H17.7603C17.7603 13.9933 19.567 12.1593 21.7384 12.1593V10.6593ZM16.2603 16.314C16.2603 19.4108 18.6872 21.9687 21.7384 21.9687V20.4687C19.567 20.4687 17.7603 18.6347 17.7603 16.314H16.2603ZM1.97599 53.8645L19.1493 34.494L18.0269 33.4989L0.853582 52.8694L1.97599 53.8645ZM18.0269 34.494L28.3431 46.1301L29.4655 45.135L19.1493 33.4989L18.0269 34.494ZM29.4851 46.107L53.434 16.7895L52.2723 15.8405L28.3235 45.1581L29.4851 46.107ZM52.292 16.8125L70.6103 37.4746L71.7327 36.4795L53.4144 15.8174L52.292 16.8125ZM70.4215 36.977V58.787H71.9215V36.977H70.4215ZM70.2001 59.0447H2.2321V60.5447H70.2001V59.0447ZM2.01083 58.7786L2.16448 53.3883L0.665089 53.3456L0.51144 58.7358L2.01083 58.7786ZM2.2321 59.0447C2.13375 59.0447 2.00591 58.9514 2.01083 58.7786L0.51144 58.7358C0.483987 59.6989 1.23499 60.5447 2.2321 60.5447V59.0447ZM70.4215 58.787C70.4215 58.9554 70.2967 59.0447 70.2001 59.0447V60.5447C71.1765 60.5447 71.9215 59.7315 71.9215 58.787H70.4215Z" fill="#4B64A4"/>
</svg>
