<svg width="10" height="12" viewBox="0 0 10 12" fill="none" xmlns="http://www.w3.org/2000/svg">
<path d="M8.54076 1.48663C7.6025 0.534756 6.32996 -1.00296e-08 5.00306 0C3.67617 1.00296e-08 2.40362 0.534756 1.46536 1.48663C0.527107 2.4385 9.88613e-09 3.72952 0 5.07567C-9.88613e-09 6.42182 0.527107 7.71283 1.46536 8.66471L4.57264 11.8231C4.62745 11.8791 4.69267 11.9236 4.76452 11.954C4.83637 11.9844 4.91343 12 4.99127 12C5.06911 12 5.14617 11.9844 5.21802 11.954C5.28987 11.9236 5.35508 11.8791 5.4099 11.8231L8.54076 8.6348C9.4751 7.68689 10 6.40125 10 5.06071C10 3.72018 9.4751 2.43454 8.54076 1.48663ZM7.69761 7.77941L5.00306 10.525L2.30851 7.77941C1.77618 7.23885 1.41376 6.55031 1.26707 5.80083C1.12039 5.05134 1.19602 4.27456 1.48441 3.56868C1.7728 2.86279 2.261 2.2595 2.8873 1.83505C3.5136 1.4106 4.24988 1.18406 5.00306 1.18406C5.75625 1.18406 6.49252 1.4106 7.11882 1.83505C7.74512 2.2595 8.23332 2.86279 8.52171 3.56868C8.8101 4.27456 8.88574 5.05134 8.73905 5.80083C8.59237 6.55031 8.22995 7.23885 7.69761 7.77941ZM3.23421 3.23928C2.75822 3.72366 2.49094 4.37973 2.49094 5.0637C2.49094 5.74768 2.75822 6.40375 3.23421 6.88813C3.58784 7.24751 4.03821 7.49293 4.5288 7.59362C5.0194 7.69431 5.52838 7.64577 5.99189 7.4541C6.4554 7.26242 6.8528 6.93615 7.13422 6.51622C7.41564 6.09628 7.56856 5.60139 7.57379 5.09361C7.57645 4.75457 7.51207 4.41843 7.38447 4.10506C7.25686 3.7917 7.06862 3.50747 6.83087 3.26918C6.59719 3.02667 6.31854 2.83344 6.01097 2.7006C5.70339 2.56776 5.37295 2.49795 5.03867 2.49517C4.7044 2.49239 4.37288 2.5567 4.0632 2.6844C3.75351 2.81211 3.47178 3.00068 3.23421 3.23928ZM5.99951 6.03873C5.77607 6.26887 5.48078 6.41313 5.1641 6.44683C4.84743 6.48054 4.52905 6.4016 4.26339 6.22352C3.99774 6.04544 3.8013 5.77926 3.70768 5.47051C3.61405 5.16176 3.62905 4.8296 3.7501 4.53082C3.87116 4.23205 4.09075 3.98521 4.37134 3.83251C4.65193 3.6798 4.97609 3.63073 5.2884 3.69366C5.60071 3.75659 5.88177 3.92763 6.08354 4.17753C6.28531 4.42743 6.39524 4.74067 6.39456 5.0637C6.38598 5.43294 6.23329 5.78362 5.97003 6.03873H5.99951Z" fill="#DC6A8D"/>
</svg>
