<svg width="29" height="29" viewBox="0 0 29 29" fill="none" xmlns="http://www.w3.org/2000/svg">
<path d="M14.4125 0.0507812C6.48189 0.0507812 0.0515137 6.48116 0.0515137 14.4118C0.0515137 22.3423 6.48189 28.7727 14.4125 28.7727C22.3431 28.7727 28.7735 22.3423 28.7735 14.4118C28.7735 6.48116 22.3431 0.0507812 14.4125 0.0507812ZM20.6153 9.722L13.8643 19.0823C13.77 19.214 13.6456 19.3213 13.5015 19.3953C13.3574 19.4693 13.1977 19.5079 13.0357 19.5079C12.8737 19.5079 12.714 19.4693 12.5699 19.3953C12.4258 19.3213 12.3014 19.214 12.207 19.0823L8.2097 13.543C8.08789 13.3731 8.2097 13.1359 8.41806 13.1359H9.92147C10.2484 13.1359 10.5594 13.293 10.7517 13.5623L13.0341 16.7294L18.0732 9.74123C18.2656 9.47517 18.5733 9.31489 18.9035 9.31489H20.4069C20.6153 9.31489 20.7371 9.5521 20.6153 9.722Z" fill="#DADADA"/>
</svg>
