<svg width="7" height="14" viewBox="0 0 7 14" fill="none" xmlns="http://www.w3.org/2000/svg">
<path d="M6.99741 7.00942C6.99783 7.22238 6.92366 7.42876 6.78778 7.59274L2.2306 13.0614C2.07589 13.2475 1.85358 13.3645 1.61257 13.3868C1.37156 13.409 1.1316 13.3346 0.945469 13.1799C0.759339 13.0251 0.642288 12.8028 0.620068 12.5618C0.597847 12.3208 0.672276 12.0809 0.826982 11.8947L4.91022 7.00942L0.972813 2.12412C0.897103 2.03089 0.840565 1.92361 0.806448 1.80846C0.772332 1.69331 0.761309 1.57256 0.774014 1.45313C0.786718 1.33371 0.8229 1.21797 0.880479 1.11258C0.938058 1.00718 1.0159 0.914204 1.10953 0.83899C1.20324 0.75552 1.31319 0.692304 1.43247 0.653301C1.55175 0.614298 1.67781 0.600351 1.80273 0.61233C1.92765 0.624309 2.04876 0.661956 2.15846 0.722916C2.26815 0.783876 2.36408 0.866835 2.44023 0.966592L6.84247 6.43522C6.95687 6.60391 7.01142 6.80608 6.99741 7.00942V7.00942Z" fill="#556EA1"/>
</svg>
