<svg width="33" height="33" viewBox="0 0 33 33" fill="none" xmlns="http://www.w3.org/2000/svg">
<path d="M16.4125 2.05078C8.48189 2.05078 2.05151 8.48116 2.05151 16.4118C2.05151 24.3423 8.48189 30.7727 16.4125 30.7727C24.3431 30.7727 30.7735 24.3423 30.7735 16.4118C30.7735 8.48116 24.3431 2.05078 16.4125 2.05078ZM22.6153 11.722L15.8643 21.0823C15.77 21.214 15.6456 21.3213 15.5015 21.3953C15.3574 21.4693 15.1977 21.5079 15.0357 21.5079C14.8737 21.5079 14.714 21.4693 14.5699 21.3953C14.4258 21.3213 14.3014 21.214 14.207 21.0823L10.2097 15.543C10.0879 15.3731 10.2097 15.1359 10.4181 15.1359H11.9215C12.2484 15.1359 12.5594 15.293 12.7517 15.5623L15.0341 18.7294L20.0732 11.7412C20.2656 11.4752 20.5733 11.3149 20.9035 11.3149H22.4069C22.6153 11.3149 22.7371 11.5521 22.6153 11.722Z" fill="#55B446"/>
</svg>
