<svg width="19" height="36" viewBox="0 0 19 36" fill="none" xmlns="http://www.w3.org/2000/svg">
<path d="M2.96402 35.9544H16.188C17.784 35.9544 19 34.6624 19 33.1424V25.1624C19 24.7824 18.696 24.4024 18.24 24.4024C17.86 24.4024 17.48 24.7064 17.48 25.1624V33.1424C17.48 33.9024 16.872 34.5104 16.112 34.5104H2.88801C2.12801 34.5104 1.52 33.9024 1.52 33.1424V12.8504L2.43201 1.75442V1.67841C2.43201 1.60241 2.432 1.45042 2.66 1.45042C2.888 1.45042 2.88801 1.52642 2.88801 1.60242L3.95201 12.0904H3.26801C2.88801 12.0904 2.50801 12.3944 2.50801 12.7744C2.50801 13.1544 2.81201 13.5344 3.19201 13.5344H4.636H15.96C16.72 13.5344 17.328 14.1424 17.328 14.9024V21.5144C17.328 21.8944 17.632 22.2744 18.088 22.2744C18.468 22.2744 18.848 21.9704 18.848 21.5144V14.9024C18.848 13.3064 17.556 12.0904 16.036 12.0904H5.32L4.256 1.45042V1.37442C4.104 0.538416 3.26801 -0.0695862 2.43201 0.00641376C1.59601 0.0824138 0.912009 0.766411 0.912009 1.67841L0 12.7744V12.8504V33.1424C0.152 34.7384 1.44402 35.9544 2.96402 35.9544Z" fill="#5A5A5A"/>
<path d="M15.2001 21.6663V17.9424C15.2001 16.6504 14.1361 15.6624 12.9201 15.6624H6.23215C4.94015 15.6624 3.95215 16.7264 3.95215 17.9424V21.6663C3.95215 22.9583 5.01615 23.9463 6.23215 23.9463H12.9201C14.1361 23.9463 15.2001 22.9583 15.2001 21.6663ZM13.7561 21.6663C13.7561 22.1223 13.3761 22.5024 12.9201 22.5024H6.23215C5.77615 22.5024 5.39614 22.1223 5.39614 21.6663V17.9424C5.39614 17.4864 5.77615 17.1063 6.23215 17.1063H12.9201C13.3761 17.1063 13.7561 17.4864 13.7561 17.9424V21.6663Z" fill="#5A5A5A"/>
<path d="M7.90403 27.5184C8.43603 27.5184 8.89202 27.0624 8.89202 26.5304C8.89202 25.9984 8.43603 25.5424 7.90403 25.5424C7.37203 25.5424 6.91602 25.9984 6.91602 26.5304C6.91602 27.0624 7.37203 27.5184 7.90403 27.5184Z" fill="#5A5A5A"/>
<path d="M6.15596 28.3545C5.62396 28.3545 5.16797 28.8105 5.16797 29.3425C5.16797 29.8745 5.62396 30.3305 6.15596 30.3305C6.68796 30.3305 7.14397 29.8745 7.14397 29.3425C7.06797 28.7345 6.68796 28.3545 6.15596 28.3545Z" fill="#5A5A5A"/>
<path d="M11.324 27.5184C11.856 27.5184 12.3119 27.0624 12.3119 26.5304C12.3119 25.9984 11.856 25.5424 11.324 25.5424C10.792 25.5424 10.3359 25.9984 10.3359 26.5304C10.4119 27.0624 10.792 27.5184 11.324 27.5184Z" fill="#5A5A5A"/>
<path d="M7.90403 32.9904C8.43603 32.9904 8.89202 32.5344 8.89202 32.0024C8.89202 31.4704 8.43603 31.0144 7.90403 31.0144C7.37203 31.0144 6.91602 31.4704 6.91602 32.0024C6.91602 32.5344 7.37203 32.9904 7.90403 32.9904Z" fill="#5A5A5A"/>
<path d="M11.324 32.9904C11.856 32.9904 12.3119 32.5344 12.3119 32.0024C12.3119 31.4704 11.856 31.0144 11.324 31.0144C10.792 31.0144 10.3359 31.4704 10.3359 32.0024C10.4119 32.5344 10.792 32.9904 11.324 32.9904Z" fill="#5A5A5A"/>
<path d="M9.57588 30.2543C10.1079 30.2543 10.5639 29.7983 10.5639 29.2663C10.5639 28.7343 10.1079 28.2783 9.57588 28.2783C9.04388 28.2783 8.58789 28.7343 8.58789 29.2663C8.66389 29.7983 9.04388 30.2543 9.57588 30.2543Z" fill="#5A5A5A"/>
<path d="M13.072 30.2543C13.604 30.2543 14.06 29.7983 14.06 29.2663C14.06 28.7343 13.604 28.2783 13.072 28.2783C12.54 28.2783 12.084 28.7343 12.084 29.2663C12.084 29.7983 12.54 30.2543 13.072 30.2543Z" fill="#5A5A5A"/>
</svg>
