<svg width="12" height="12" viewBox="0 0 12 12" fill="none" xmlns="http://www.w3.org/2000/svg">
<path d="M6.00013 5.80804e-09C5.0798 -4.04863e-05 4.1718 0.211644 3.34637 0.618678C2.52094 1.02571 1.8002 1.61718 1.23993 2.34733C0.679651 3.07749 0.294851 3.92674 0.115296 4.82941C-0.0642592 5.73207 -0.0337559 6.66394 0.204446 7.55293C0.442648 8.44192 0.882163 9.2642 1.48899 9.95614C2.09581 10.6481 2.85369 11.1912 3.70397 11.5433C4.55425 11.8955 5.47415 12.0474 6.39251 11.9871C7.31087 11.9269 8.20306 11.6562 9.00007 11.196C9.07177 11.1585 9.13514 11.1069 9.18637 11.0442C9.23761 10.9816 9.27564 10.9092 9.29818 10.8315C9.32073 10.7538 9.32732 10.6723 9.31757 10.592C9.30781 10.5117 9.2819 10.4341 9.24141 10.3641C9.20091 10.294 9.14666 10.2329 9.08192 10.1843C9.01719 10.1358 8.9433 10.1008 8.8647 10.0816C8.78611 10.0623 8.70443 10.0592 8.62458 10.0723C8.54473 10.0854 8.46837 10.1146 8.40008 10.158C7.48506 10.6863 6.42129 10.8979 5.37375 10.76C4.32621 10.6221 3.35344 10.1425 2.60628 9.39538C1.85913 8.64829 1.37935 7.67555 1.24135 6.628C1.10336 5.58046 1.31485 4.51664 1.84303 3.60154C2.37122 2.68644 3.18658 1.97119 4.16267 1.56671C5.13876 1.16223 6.22104 1.09113 7.24165 1.36442C8.26227 1.63772 9.1642 2.24015 9.80757 3.07827C10.4509 3.9164 10.7998 4.9434 10.8 6V6.45C10.8 6.72848 10.6894 6.99555 10.4925 7.19246C10.2956 7.38938 10.0285 7.5 9.75005 7.5C9.47158 7.5 9.20451 7.38938 9.0076 7.19246C8.81069 6.99555 8.70007 6.72848 8.70007 6.45V3.9C8.70007 3.74087 8.63686 3.58826 8.52434 3.47574C8.41182 3.36321 8.25921 3.3 8.10009 3.3C7.96056 3.2969 7.82432 3.34253 7.71481 3.42904C7.6053 3.51556 7.52937 3.63754 7.5001 3.774C7.05906 3.46895 6.53638 3.30378 6.00013 3.3C5.54844 3.2946 5.10261 3.40261 4.70348 3.61416C4.30435 3.8257 3.96468 4.13401 3.71557 4.51084C3.46645 4.88767 3.31587 5.32099 3.27761 5.7711C3.23934 6.22121 3.31462 6.67372 3.49655 7.0872C3.67847 7.50068 3.96123 7.8619 4.31893 8.13778C4.67662 8.41367 5.09782 8.5954 5.54394 8.66632C5.99006 8.73724 6.44684 8.6951 6.87246 8.54375C7.29807 8.3924 7.67891 8.13667 7.98009 7.8C8.26517 8.16919 8.65821 8.44036 9.10455 8.57581C9.55089 8.71126 10.0283 8.70425 10.4705 8.55576C10.9127 8.40726 11.2976 8.12467 11.5717 7.74727C11.8458 7.36987 11.9955 6.91643 12 6.45V6C12 5.21207 11.8448 4.43185 11.5433 3.7039C11.2418 2.97595 10.7998 2.31451 10.2427 1.75736C9.68554 1.20021 9.02412 0.758251 8.29618 0.456723C7.56824 0.155195 6.78805 5.80804e-09 6.00013 5.80804e-09ZM6.00013 7.5C5.70347 7.5 5.41346 7.41203 5.16679 7.2472C4.92013 7.08238 4.72787 6.84811 4.61434 6.57403C4.50081 6.29994 4.47111 5.99834 4.52899 5.70736C4.58686 5.41639 4.72972 5.14912 4.9395 4.93934C5.14927 4.72956 5.41654 4.5867 5.7075 4.52882C5.99847 4.47094 6.30006 4.50065 6.57414 4.61418C6.84823 4.72771 7.08249 4.91997 7.24731 5.16664C7.41213 5.41332 7.5001 5.70333 7.5001 6C7.5001 6.39782 7.34207 6.77936 7.06077 7.06066C6.77947 7.34196 6.39795 7.5 6.00013 7.5Z" fill="#DC6A8D"/>
</svg>
