<svg width="12" height="12" viewBox="0 0 12 12" fill="none" xmlns="http://www.w3.org/2000/svg">
<path d="M10.4622 6.61663C10.33 6.61663 10.1919 6.57438 10.0597 6.54419C9.7921 6.48492 9.52911 6.40624 9.2728 6.30875C8.99413 6.20687 8.68781 6.21216 8.41278 6.32361C8.13776 6.43505 7.91346 6.64479 7.78306 6.91244L7.6509 7.1841C7.06492 6.85559 6.52547 6.4495 6.04702 5.97672C5.57888 5.49614 5.17501 4.95633 4.84561 4.37091L5.10992 4.20187C5.37626 4.07082 5.58495 3.84541 5.69585 3.56902C5.80674 3.29263 5.81201 2.98478 5.71063 2.70472C5.61525 2.4466 5.53699 2.18241 5.47635 1.91389C5.44632 1.77504 5.42229 1.64223 5.40427 1.50338C5.33132 1.07815 5.1097 0.693072 4.77931 0.417486C4.44892 0.1419 4.03148 -0.00608147 3.60216 0.000191553H1.80004C1.54609 -0.000142751 1.29494 0.053466 1.06305 0.157503C0.831159 0.261541 0.623766 0.413657 0.454466 0.603881C0.282478 0.798569 0.154278 1.02823 0.0786036 1.27722C0.00292938 1.52621 -0.01844 1.78866 0.0159519 2.0467C0.33235 4.57438 1.47709 6.92426 3.26961 8.72569C5.06212 10.5271 7.40038 11.6775 9.91556 11.9955C9.99354 12.0015 10.0719 12.0015 10.1498 11.9955C10.6278 11.9955 11.0862 11.8047 11.4241 11.4651C11.7621 11.1254 11.9519 10.6648 11.9519 10.1844V8.37337C11.9457 7.95213 11.7935 7.54625 11.5216 7.2256C11.2497 6.90496 10.8751 6.68961 10.4622 6.61663ZM10.7565 10.2388C10.7575 10.3263 10.7396 10.413 10.7039 10.4928C10.6683 10.5726 10.6158 10.6437 10.55 10.7012C10.4843 10.7586 10.407 10.801 10.3234 10.8254C10.2397 10.8498 10.1518 10.8556 10.0657 10.8425C7.8228 10.5483 5.73892 9.51924 4.13678 7.91457C2.53591 6.29357 1.51365 4.18584 1.22937 1.91993C1.21632 1.83138 1.22303 1.74104 1.249 1.65542C1.27498 1.5698 1.31957 1.49106 1.37955 1.4249C1.43517 1.36126 1.50349 1.3101 1.58008 1.27474C1.65666 1.23937 1.7398 1.2206 1.82407 1.21965H3.62618C3.76588 1.21652 3.90228 1.26243 4.01192 1.34948C4.12156 1.43653 4.19758 1.55926 4.22689 1.69656C4.25092 1.86157 4.28095 2.02456 4.31699 2.18555C4.38639 2.50378 4.47874 2.81651 4.59332 3.12127L3.75233 3.51367C3.68043 3.54682 3.61575 3.59393 3.562 3.65227C3.50826 3.71062 3.46652 3.77906 3.43917 3.85366C3.41182 3.92827 3.3994 4.00756 3.40263 4.087C3.40586 4.16644 3.42467 4.24446 3.45799 4.31657C4.32252 6.1776 5.81109 7.67357 7.66292 8.5424C7.80916 8.60278 7.9732 8.60278 8.11945 8.5424C8.26852 8.48665 8.38949 8.37375 8.45585 8.22849L8.83429 7.38332C9.14483 7.49493 9.46178 7.58766 9.7834 7.66102C9.93959 7.69724 10.1078 7.72742 10.27 7.75157C10.4055 7.78224 10.5262 7.85915 10.6117 7.96922C10.6971 8.07929 10.7419 8.21571 10.7385 8.35526L10.7565 10.2388Z" fill="#DC6A8D"/>
</svg>
